<svg xmlns="http://www.w3.org/2000/svg" viewBox="0 0 1796 398"><defs><style>.cls-1,.cls-3{fill:none;}.cls-1{stroke:#ffa800;stroke-miterlimit:10;stroke-width:5px;}.cls-2{fill:#ffa800;}</style></defs><title>Rewire Logo</title><g id="Layer_1" data-name="Layer 1"><rect class="cls-1" x="50.01" y="55.81" width="941.34" height="278.4" rx="12.37"/><path class="cls-2" d="M1154.65,299.22h-26.93V208.77a180.27,180.27,0,0,0-1.08-20.4q-1.07-9.47-4.08-15.15a21,21,0,0,0-9.17-8.89q-5.88-2.91-16.05-2.91a46.29,46.29,0,0,0-20.7,5.33,107.14,107.14,0,0,0-20.85,13.87v118.6h-26.93V140.37h26.93V158q16.88-15,33.19-20.12a37.91,37.91,0,0,1,8-1.57q29-2.7,44.39,15.07,13.32,15.44,13.32,44.73Z"/><path class="cls-2" d="M1267,277.89q-3.3,2.42-8.81,6.75a62.61,62.61,0,0,1-10.68,6.9,81.06,81.06,0,0,1-13.82,5.69q-6.66,2-18.7,2a46.84,46.84,0,0,1-44.7-30.22,53.71,53.71,0,0,1-3.87-20.27q0-16.48,7-28.08t22.21-18.42q13.47-6.1,31.8-8.46t39.55-3.48v-5.12q0-9.39-2.87-15.15a21,21,0,0,0-8-8.88,31.66,31.66,0,0,0-12.61-4.34,108.29,108.29,0,0,0-15.33-1.07,104.59,104.59,0,0,0-21.92,2.77,148.23,148.23,0,0,0-25.22,8h-1.57V139.38q7.45-2.15,21.35-4.7a152.1,152.1,0,0,1,27.5-2.56q16.49,0,27.8,2.56a53.64,53.64,0,0,1,20.34,9.25,39.58,39.58,0,0,1,13,16.92q4.3,10.38,4.3,25.31V294.81H1267Zm0-22.19V211.62q-9.6.84-24.29,2.34a132.34,132.34,0,0,0-23.71,4.2,43.24,43.24,0,0,0-17.76,10q-7,6.75-7,18.84,0,13.65,7.73,20.62t22.64,7a48.45,48.45,0,0,0,23.07-5.48A100.38,100.38,0,0,0,1267,255.7Z"/><path class="cls-2" d="M1367,299.22q-22.07,0-34.39-12.44t-12.32-39.32v-88h-18.2V137.24h18.2V91.6h26.93v45.64h49.58v22.19H1347.2v75.51q0,12.09.43,18.63a31.55,31.55,0,0,0,3.3,12.23,15.61,15.61,0,0,0,7.88,7.46c3.63,1.67,8.55,2.49,14.76,2.49a42.63,42.63,0,0,0,12.75-1.92,73.58,73.58,0,0,0,8.88-3.2h1.58v24a132.54,132.54,0,0,1-15.41,3.34A95.25,95.25,0,0,1,1367,299.22Z"/><path class="cls-2" d="M1441.77,121.81H1424a6.36,6.36,0,0,1-6.4-6.31V100.38a6.35,6.35,0,0,1,6.4-6.3h4.11a19.89,19.89,0,0,1,20.05,19.74v1.68A6.36,6.36,0,0,1,1441.77,121.81Zm-1.86,177.41h-14.14a6.36,6.36,0,0,1-6.4-6.31V146.68a6.36,6.36,0,0,1,6.4-6.31h14.14a6.36,6.36,0,0,1,6.4,6.31V292.91A6.36,6.36,0,0,1,1439.91,299.22Z"/><path class="cls-2" d="M1607.84,215.46q0,40.1-19.48,61.93t-51.87,21.83q-33.37,0-52.5-22.54t-19.13-61.22q0-39.83,19.7-61.86t51.93-22q32.38,0,51.87,22T1607.84,215.46Zm-27.79,0q0-30.86-11.32-45.87t-32.24-15q-21.06,0-32.45,15t-11.39,45.87q0,29.86,11.39,45.29t32.45,15.43q20.77,0,32.17-15.15T1580.05,215.46Z"/><path class="cls-2" d="M1748.67,299.22h-26.94V208.77a182.74,182.74,0,0,0-1.07-20.4q-1.08-9.47-4.09-15.15a20.93,20.93,0,0,0-9.17-8.89q-5.87-2.91-16-2.91a46.23,46.23,0,0,0-20.7,5.33,106.85,106.85,0,0,0-20.85,13.87v118.6h-26.94V140.37h26.94V158q16.88-15,33.18-20.12a37.87,37.87,0,0,1,8-1.57q29-2.7,44.38,15.07,13.34,15.44,13.33,44.73Z"/><path class="cls-2" d="M301.23,299.22q-45.56,0-69.84-21.62T207.11,216q0-39.1,22.63-62.43t63.33-23.32q37,0,55.59,19.77t18.62,56.59v17.92H257.39q.72,11.1,4.73,18.56A32.61,32.61,0,0,0,272.72,255a43,43,0,0,0,15,6.33,86.06,86.06,0,0,0,18.77,1.92,77.43,77.43,0,0,0,17.19-1.92,83,83,0,0,0,15.47-5.05,100.14,100.14,0,0,0,11.39-5.83q5.24-3.12,8.53-5.54h5.3V286q-6.17,2.43-11.25,4.48a101.31,101.31,0,0,1-14,4.2A147.79,147.79,0,0,1,322.37,298,157.4,157.4,0,0,1,301.23,299.22Zm16.62-104.66q-.42-15.8-7.37-24t-21.28-8.24q-14.61,0-22.85,8.67t-9.1,23.61Z"/><path class="cls-2" d="M616.46,139.52l-47,159.7h-53.3L488,196,459.58,299.22h-53.3l-46.56-159.7h52.73l24.64,105.66,30.52-105.66h44.27l28.79,105.66,24.22-105.66Z"/><path class="cls-2" d="M650.47,116.77H632.19a8,8,0,0,1-8-7.92v-18a13,13,0,0,1,13.1-12.91h39.91V90.47A26.5,26.5,0,0,1,650.47,116.77Zm25.26,182.45H625.59V139.52h50.14Z"/><path class="cls-2" d="M899.28,299.22q-45.56,0-69.84-21.62T805.15,216q0-39.1,22.64-62.43t63.33-23.32q37,0,55.59,19.77t18.62,56.59v17.92H855.44q.72,11.1,4.73,18.56A32.52,32.52,0,0,0,870.77,255a42.93,42.93,0,0,0,15,6.33,86.19,86.19,0,0,0,18.77,1.92,77.45,77.45,0,0,0,17.2-1.92,83,83,0,0,0,15.47-5.05,101,101,0,0,0,11.39-5.83q5.24-3.12,8.52-5.54h5.31V286q-6.16,2.43-11.25,4.48a101.31,101.31,0,0,1-14,4.2A148.4,148.4,0,0,1,920.41,298,157.14,157.14,0,0,1,899.28,299.22ZM915.9,194.56q-.42-15.8-7.38-24t-21.27-8.24q-14.62,0-22.85,8.67t-9.1,23.61Z"/><path class="cls-2" d="M198.57,139.09c-2-.09-3.82-.14-5.45-.14a44.25,44.25,0,0,0-13.68,2.35c-4.82,1.56-13.12,3.43-16.75,5.61-3.35,1.9-3,4.44-7,7.61s-7.24,5.81-9.53,7.89V139.52H96v159.7h50.14V205.47c4.26-11,9.49-12,15.53-15.14,9.11-3.9,21.39-4,29.75-4.17,2.75,0,5.16,0,7.09,0,.49.12.95.25,1.36.39H204V139.52C202.39,139.33,200.57,139.19,198.57,139.09Z"/><path class="cls-2" d="M793.56,139.09c-2-.09-3.82-.14-5.45-.14a44.3,44.3,0,0,0-13.68,2.35,61.19,61.19,0,0,0-12.68,5.61,93.9,93.9,0,0,0-11.1,7.61q-6.09,4.77-9.53,7.89V139.52H691v159.7h50.14V205.47c4.26-11,9.49-12,15.53-15.14,9.11-3.9,21.39-4,29.75-4.17,2.75,0,5.17,0,7.09,0,.49.12,1,.25,1.36.39H799V139.52C797.38,139.33,795.56,139.19,793.56,139.09Z"/><rect class="cls-3" x="-50.5" y="-277" width="1903" height="576.22"/></g></svg>